Coordinates
version=1
nRows=5
nColumns=40
inDegrees=yes

Units are S.I. units (second, meters, Newtons, ...)
If the header above contains a line with 'inDegrees', this indicates whether rotational values are in degrees (yes) or radians (no).

endheader
time	pelvis_tilt	pelvis_list	pelvis_rotation	pelvis_tx	pelvis_ty	pelvis_tz	hip_flexion_r	hip_adduction_r	hip_rotation_r	knee_angle_r	knee_angle_r_beta	ankle_angle_r	subtalar_angle_r	mtp_angle_r	hip_flexion_l	hip_adduction_l	hip_rotation_l	knee_angle_l	knee_angle_l_beta	ankle_angle_l	subtalar_angle_l	mtp_angle_l	lumbar_extension	lumbar_bending	lumbar_rotation	arm_flex_r	arm_add_r	arm_rot_r	elbow_flex_r	pro_sup_r	wrist_flex_r	wrist_dev_r	arm_flex_l	arm_add_l	arm_rot_l	elbow_flex_l	pro_sup_l	wrist_flex_l	wrist_dev_l
      4.70000000	     -4.94422610	     -3.36410256	     -5.76763847	     -0.28132613	      0.82817166	     -0.98774118	      5.69750265	     -4.32545185	      2.73152288	     79.34571983	      1.38484406	    -21.55251073	      0.00000000	      0.00000000	     45.14893681	     -5.63814920	     -7.47006028	     83.98906826	      1.46588578	     30.69639791	      0.00000000	      0.00000000	     -9.05280678	     -4.00252233	      9.48590622	     89.93041718	    -15.72119563	     24.34404646	     39.43765352	     83.82691798	      0.00000000	      0.00000000	     89.95070009	    -17.11796725	     32.27103787	     47.64179540	     85.73376694	      0.00000000	      0.00000000
      4.70500000	     -4.94404238	     -3.22965425	     -5.70795674	     -0.28136362	      0.82788496	     -0.98791698	      5.71369986	     -4.48416094	      2.68399258	     79.40576013	      1.38589196	    -21.55089162	      0.00000000	      0.00000000	     45.15688336	     -5.49605982	     -7.55492019	     83.98382838	      1.46579432	     30.69895125	      0.00000000	      0.00000000	     -9.07215951	     -4.16313792	      9.50419756	     89.93052839	    -15.90667230	     24.49395825	     39.56506941	     83.67107028	      0.00000000	      0.00000000	     89.95103521	    -16.91363350	     32.15654167	     47.56131498	     85.53893471	      0.00000000	      0.00000000
      4.71000000	     -5.05068189	     -3.28773204	     -5.59650618	     -0.28156025	      0.82737663	     -0.98803509	      5.83630373	     -4.41417340	      2.54487239	     79.49219418	      1.38740052	    -21.57540446	      0.00000000	      0.00000000	     45.36152024	     -5.51220407	     -7.46974772	     84.08764999	      1.46760635	     30.73840677	      0.00000000	      0.00000000	     -9.02753104	     -4.06883963	      9.36393675	     89.93077879	    -15.79614499	     24.25791063	     39.53241268	     83.79320281	      0.00000000	      0.00000000	     89.95108280	    -16.98600438	     32.14302999	     47.65353724	     85.69513357	      0.00000000	      0.00000000
      4.71500000	     -5.16969458	     -3.25049109	     -5.57832814	     -0.28180161	      0.82684634	     -0.98809547	      5.99211801	     -4.42074953	      2.53158778	     79.62713947	      1.38975576	    -21.16925923	      0.00000000	      0.00000000	     45.56520519	     -5.54001087	     -7.55316092	     84.17467873	      1.46912529	     30.47299730	      0.00000000	      0.00000000	     -8.91082540	     -4.08786287	      9.38920142	     89.93079611	    -15.54575764	     23.99179142	     39.19943589	     79.55254631	      0.00000000	      0.00000000	     89.95154641	    -16.83495524	     32.64007482	     47.45728159	     81.30434022	      0.00000000	      0.00000000
      4.72000000	     -5.11497134	     -3.22276240	     -5.44492678	     -0.28182068	      0.82670292	     -0.98834187	      5.92800841	     -4.49688377	      2.36655638	     79.60678971	      1.38940059	    -21.64328444	      0.00000000	      0.00000000	     45.53314675	     -5.41180333	     -7.51020403	     84.16587795	      1.46897169	     30.70005387	      0.00000000	      0.00000000	     -9.06132227	     -4.13145501	      9.28352823	     89.93095944	    -15.87121317	     24.00302231	     39.60863526	     83.86107687	      0.00000000	      0.00000000	     89.95152708	    -16.82936930	     31.98631227	     47.63554062	     85.75351437	      0.00000000	      0.00000000
